<?xml version="1.0" standalone="no"?>
<!DOCTYPE svg PUBLIC "-//W3C//DTD SVG 20010904//EN"
 "http://www.w3.org/TR/2001/REC-SVG-20010904/DTD/svg10.dtd">
<svg version="1.0" xmlns="http://www.w3.org/2000/svg"
 width="1024.000000pt" height="1024.000000pt" viewBox="0 0 1024.000000 1024.000000"
 preserveAspectRatio="xMidYMid meet">

<g transform="translate(0.000000,1024.000000) scale(0.100000,-0.100000)"
fill="#000000" stroke="none">
<path d="M2197 7513 c-4 -3 -7 -1083 -7 -2400 l0 -2393 385 0 385 0 2 1777 3
1777 29 -45 c29 -44 401 -570 796 -1124 114 -159 238 -335 277 -390 38 -55
159 -226 268 -380 458 -646 712 -1006 960 -1358 l180 -257 514 0 513 0 -17 27
c-34 52 -155 222 -878 1227 l-287 398 0 866 c0 476 3 862 7 859 16 -17 2153
-3061 2332 -3324 l36 -52 173 -1 172 0 0 2400 0 2400 -375 0 -375 0 -2 -1421
-3 -1421 -60 88 c-33 49 -111 161 -174 249 -63 88 -204 288 -314 445 -219 311
-558 789 -1072 1510 -182 256 -344 484 -360 508 l-28 42 -346 -2 -346 -3 -3
-1074 -2 -1074 -69 99 c-37 54 -247 349 -466 654 -218 305 -533 745 -698 977
l-302 423 -421 0 c-231 0 -424 -3 -427 -7z"/>
</g>
</svg>
